OS: Arch Linux
HandBrake 1.7.3 (2024021100)
Kernel: Linux 6.8.7-arch1-1 (x86_64)
CPU: AMD Ryzen 7 7840HS w/ Radeon 780M Graphics x 16
Install Dir: /usr/bin
Config Dir:  /home/jake/.config/ghb
_______________________________

[17:15:33] Compile-time hardening features are enabled
[17:15:33] nvenc: version 12.2 is available
[17:15:33] nvdec: is not compiled into this build
[17:15:33] CUDA Version: 8.9
[17:15:33] qsv: not available on this system
[17:15:33] hb_init: starting libhb thread
[17:15:33] hb_init: starting libhb thread
[17:15:33] hb_init: starting libhb thread
[17:15:34] CPU: AMD Ryzen 7 7840HS w/ Radeon 780M Graphics
[17:15:34]  - logical processor count: 16
[17:15:34] Intel Quick Sync Video support: no
[17:15:34] hb_scan: path=/home/jake/Downloads/TextInMotion-VideoSample-1080p.mp4, title_index=0
Input #0, mov,mp4,m4a,3gp,3g2,mj2, from '/home/jake/Downloads/TextInMotion-VideoSample-1080p.mp4':
  Metadata:
    major_brand     : isom
    minor_version   : 512
    compatible_brands: isomiso2avc1mp41
    encoder         : Lavf58.20.100
  Duration: 00:00:30.00, start: 0.000000, bitrate: 4168 kb/s
  Stream #0:0[0x1](eng): Video: h264 (High) (avc1 / 0x31637661), yuv420p(progressive), 1920x1080 [SAR 1:1 DAR 16:9], 4116 kb/s, 25 fps, 25 tbr, 12800 tbn (default)
    Metadata:
      handler_name    : Apple Video Media Handler
      vendor_id       : [0][0][0][0]
      timecode        : 00:00:00:00
  Stream #0:1[0x2](eng): Audio: aac (LC) (mp4a / 0x6134706D), 48000 Hz, stereo, fltp, 2 kb/s (default)
    Metadata:
      handler_name    : Apple Sound Media Handler
      vendor_id       : [0][0][0][0]
  Stream #0:2[0x3](eng): Data: none (tmcd / 0x64636D74), 0 kb/s
    Metadata:
      handler_name    : Apple Video Media Handler
      timecode        : 00:00:00:00
  Stream #0:3[0x0]: Video: mjpeg (Baseline), yuvj444p(pc, bt470bg/unknown/unknown), 1920x1080 [SAR 1:1 DAR 16:9], 90k tbr, 90k tbn (attached pic)
[17:15:34] scan: decoding previews for title 1
[17:15:34] scan: audio 0x1: aac, rate=48000Hz, bitrate=2554 English (AAC LC, 2.0 ch, 2 kbps)
[17:15:34] using container PAR 1:1
[17:15:34] scan: 10 previews, 1920x1080, 25.000 fps, autocrop = 0/0/0/0, aspect 16:9, PAR 1:1, color profile: 1-1-1, chroma location: left
[17:15:34] libhb: scan thread found 1 valid title(s)
